<?xml version="1.0" encoding="utf-8"?>
<!-- Generator: Adobe Illustrator 22.1.0, SVG Export Plug-In . SVG Version: 6.00 Build 0)  -->
<svg version="1.1" id="Calque_1" xmlns="http://www.w3.org/2000/svg" xmlns:xlink="http://www.w3.org/1999/xlink" x="0px" y="0px"
	 viewBox="0 0 18 18" style="enable-background:new 0 0 18 18;" xml:space="preserve">
<style type="text/css">
	.st0{fill:#FF0000;}
</style>
<g id="Pages">
	<g id="_x31_-iPhone-Landing" transform="translate(-92.000000, -306.000000)">
		<g id="orange-content" transform="translate(26.000000, 125.000000)">
			<g id="btn_x2F_extralarge_x2F_white" transform="translate(43.000000, 166.000000)">
				<g id="text" transform="translate(20.000000, 12.000000)">
					<g id="icon_x2F_orange_x2F_event">
						<path id="Shape_1_" class="st0" d="M19.2,5.6h-1.8V3h-1.8v2.6H8.4V3H6.6v2.6H4.8C3.8,5.6,3,6.5,3,7.5v11.7
							c0,1,0.8,1.8,1.8,1.8h14.4c1,0,1.8-0.8,1.8-1.8V7.5C21,6.5,20.2,5.6,19.2,5.6z M4.9,18.1v-8h14.2v8l0,0c0,0.6-0.4,1-1,1H5.9
							l0,0C5.3,19.1,4.9,18.7,4.9,18.1z"/>
					</g>
				</g>
			</g>
		</g>
	</g>
</g>
</svg>
