<?xml version="1.0" encoding="UTF-8" standalone="no"?>
<svg width="35px" height="30px" viewBox="0 0 35 30" version="1.1" xmlns="http://www.w3.org/2000/svg" xmlns:xlink="http://www.w3.org/1999/xlink">
    <!-- Generator: Sketch 47.1 (45422) - http://www.bohemiancoding.com/sketch -->
    <title>Hackages_Logo horizontal 3 colors Copy</title>
    <desc>Created with Sketch.</desc>
    <defs></defs>
    <g id="Symbols" stroke="none" stroke-width="1" fill="none" fill-rule="evenodd">
        <g id="navbar/mobile/green" transform="translate(-143.000000, -15.000000)" fill-rule="nonzero" fill="#FFFFFF">
            <g id="Hackages_Logo-horizontal-3-colors-Copy" transform="translate(143.000000, 15.000000)">
                <path d="M34.1803279,15.1672131 C34.1826736,14.9810445 34.1351253,14.7976439 34.042623,14.6360656 L26.1344262,0.93442623 C25.9470859,0.611966247 25.6024381,0.413419177 25.2295082,0.413114754 L24.6442623,0.413114754 C24.5273181,0.413654301 24.4194213,0.476137741 24.3607477,0.577299221 C24.302074,0.678460701 24.3014151,0.803142108 24.3590164,0.904918033 L31.0672131,12.5557377 C31.2528826,12.8793423 31.2524269,13.2772749 31.0660167,13.6004533 C30.8796066,13.9236318 30.5353786,14.1232757 30.1622951,14.1245902 L30.1377049,14.1245902 C29.764775,14.1242857 29.4201272,13.9257387 29.2327869,13.6032787 L26.9852459,9.70819672 C26.8691879,9.50514696 26.6535482,9.3795134 26.4196721,9.37868852 L18.8360656,9.37868852 C18.7191213,9.37922807 18.6112246,9.44171151 18.5525509,9.54287299 C18.4938773,9.64403447 18.4932184,9.76871588 18.5508197,9.8704918 L20.1,12.5557377 C20.2844848,12.8813198 20.2812777,13.2805876 20.0915865,13.6031641 C19.9018953,13.9257406 19.5545332,14.122628 19.1803279,14.1196721 L19.1803279,14.1196721 C18.8071273,14.1203805 18.4620098,13.9215628 18.2754098,13.5983607 L10.8688525,0.737704918 C10.7519223,0.533128326 10.5339946,0.407256332 10.2983607,0.408196721 L9.40819672,0.408196721 C9.03628861,0.412258065 8.69413969,0.612312353 8.50819672,0.93442623 L0.575409836,14.6311475 C0.387264271,14.9549837 0.387264271,15.3548524 0.575409836,15.6786885 L0.880327869,16.2295082 C0.939823329,16.3289812 1.04720709,16.3898797 1.16311475,16.3898797 C1.27902242,16.3898797 1.38640618,16.3289812 1.44590164,16.2295082 L8.18852459,4.55901639 C8.37424581,4.23448798 8.71952945,4.03426019 9.09344262,4.03426019 C9.4673558,4.03426019 9.81263944,4.23448798 9.99836066,4.55901639 L9.99836066,4.55901639 C10.1835988,4.88187456 10.1835988,5.27878118 9.99836066,5.60163934 L7.75081967,9.49672131 C7.63397625,9.69910005 7.63397625,9.94844094 7.75081967,10.1508197 L11.552459,16.7213115 C11.6119545,16.8207845 11.7193382,16.881683 11.8352459,16.881683 C11.9511536,16.881683 12.0585373,16.8207845 12.1180328,16.7213115 L13.6672131,14.0360656 C13.8549245,13.7141706 14.1995027,13.5162229 14.5721311,13.5162229 C14.9447596,13.5162229 15.2893378,13.7141706 15.4770492,14.0360656 L15.4770492,14.0360656 C15.6651947,14.3599017 15.6651947,14.7597704 15.4770492,15.0836066 L8.05081967,27.9688525 C7.93207379,28.1724773 7.93207379,28.424244 8.05081967,28.6278689 L8.49344262,29.4 C8.68078296,29.72246 9.0254307,29.9210071 9.39836066,29.9213115 L25.2393443,29.9213115 C25.5978213,29.919618 25.9302899,29.7338814 26.1196721,29.4295082 L26.1196721,29.3901639 L26.4098361,28.8983607 C26.4674373,28.7965847 26.4667785,28.6719033 26.4081048,28.5707418 C26.3494311,28.4695804 26.2415344,28.4070969 26.1245902,28.4065574 L26.1245902,28.4065574 L12.7032787,28.4065574 C12.321994,28.4119774 11.9681653,28.208816 11.7806337,27.8767929 C11.5931022,27.5447699 11.6017864,27.1368557 11.8032787,26.8131148 L11.8032787,26.8131148 C11.990619,26.4906548 12.3352668,26.2921077 12.7081967,26.2918033 L17.2131148,26.2918033 C17.4469908,26.2909784 17.6626305,26.1653448 17.7786885,25.9622951 L21.5655738,19.4016393 C21.623175,19.2998634 21.6225162,19.175182 21.5638425,19.0740205 C21.5051688,18.9728591 21.3972721,18.9103756 21.2803279,18.9098361 L18.1967213,18.9098361 C17.8236378,18.9085216 17.4794098,18.7088777 17.2929997,18.3856992 C17.1065895,18.0625208 17.1061338,17.6645882 17.2918033,17.3409836 L17.2918033,17.3409836 C17.4689303,17.003339 17.8155266,16.7886 18.1967213,16.7803279 L33.0098361,16.7803279 C33.24547,16.7812683 33.4633977,16.6553963 33.5803279,16.4508197 L34.0377049,15.6590164 C34.1236684,15.5090331 34.1709897,15.3400286 34.1754098,15.1672131 L34.1803279,15.1672131 Z" id="Shape"></path>
                <path d="M8.50819672,0.93442623 L0.575409836,14.6311475 C0.387264271,14.9549837 0.387264271,15.3548524 0.575409836,15.6786885 L0.880327869,16.2295082 C0.939823329,16.3289812 1.04720709,16.3898797 1.16311475,16.3898797 C1.27902242,16.3898797 1.38640618,16.3289812 1.44590164,16.2295082 L8.18852459,4.55901639 C8.37424581,4.23448798 8.71952945,4.03426019 9.09344262,4.03426019 C9.4673558,4.03426019 9.81263944,4.23448798 9.99836066,4.55901639 L9.99836066,4.55901639 C10.1835988,4.88187456 10.1835988,5.27878118 9.99836066,5.60163934 L7.75081967,9.49672131 C7.63397625,9.69910005 7.63397625,9.94844094 7.75081967,10.1508197 L11.552459,16.7213115 C11.6119545,16.8207845 11.7193382,16.881683 11.8352459,16.881683 C11.9511536,16.881683 12.0585373,16.8207845 12.1180328,16.7213115 L13.6672131,14.0360656 C13.8549245,13.7141706 14.1995027,13.5162229 14.5721311,13.5162229 C14.9447596,13.5162229 15.2893378,13.7141706 15.4770492,14.0360656 L15.4770492,14.0360656 C15.6651947,14.3599017 15.6651947,14.7597704 15.4770492,15.0836066 L8.05081967,27.9688525 C7.93207379,28.1724773 7.93207379,28.424244 8.05081967,28.6278689 L8.49344262,29.4 C8.58454693,29.5570484 8.71508271,29.6875842 8.87213115,29.7786885 L17.3065574,15.1672131 L8.85245902,0.560655738 C8.70863505,0.65494671 8.59036852,0.783350367 8.50819672,0.93442623 Z" id="Shape"></path>
                <path d="M10.4262295,19.0131148 L6.63934426,12.452459 C6.5798488,12.352986 6.47246504,12.2920875 6.35655738,12.2920875 C6.24064971,12.2920875 6.13326595,12.352986 6.07377049,12.452459 L2.57213115,18.4770492 C2.45338527,18.680674 2.45338527,18.9324407 2.57213115,19.1360656 L6.36393443,25.7016393 C6.42342989,25.8011123 6.53081365,25.8620108 6.64672131,25.8620108 C6.76262897,25.8620108 6.87001274,25.8011123 6.9295082,25.7016393 L10.4262295,19.6721311 C10.5449754,19.4685063 10.5449754,19.2167396 10.4262295,19.0131148 Z" id="Shape"></path>
                <path d="M34.042623,14.6311475 L26.1344262,0.93442623 C25.9470859,0.611966247 25.6024381,0.413419177 25.2295082,0.413114754 L24.6442623,0.413114754 C24.5273181,0.413654301 24.4194213,0.476137741 24.3607477,0.577299221 C24.302074,0.678460701 24.3014151,0.803142108 24.3590164,0.904918033 L31.0672131,12.5557377 C31.2528826,12.8793423 31.2524269,13.2772749 31.0660167,13.6004533 C30.8796066,13.9236318 30.5353786,14.1232757 30.1622951,14.1245902 L30.1377049,14.1245902 C29.764775,14.1242857 29.4201272,13.9257387 29.2327869,13.6032787 L26.9852459,9.70819672 C26.8691879,9.50514696 26.6535482,9.3795134 26.4196721,9.37868852 L18.8360656,9.37868852 C18.7191213,9.37922807 18.6112246,9.44171151 18.5525509,9.54287299 C18.4938773,9.64403447 18.4932184,9.76871588 18.5508197,9.8704918 L20.1,12.5557377 C20.2844848,12.8813198 20.2812777,13.2805876 20.0915865,13.6031641 C19.9018953,13.9257406 19.5545332,14.122628 19.1803279,14.1196721 L19.1803279,14.1196721 C18.8071273,14.1203805 18.4620098,13.9215628 18.2754098,13.5983607 L10.8688525,0.737704918 C10.7519223,0.533128326 10.5339946,0.407256332 10.2983607,0.408196721 L9.40819672,0.408196721 C9.21944737,0.407947548 9.03417066,0.45894114 8.87213115,0.555737705 L17.3065574,15.1622951 L34.1803279,15.1622951 C34.1826736,14.9761265 34.1351253,14.7927259 34.042623,14.6311475 Z" id="Shape"></path>
                <path d="M16.8590164,6.93934426 C16.9759466,7.14392085 17.1938742,7.26979285 17.4295082,7.26885246 L25.0081967,7.26885246 C25.1251409,7.26831291 25.2330377,7.20582947 25.2917113,7.10466799 C25.350385,7.00350651 25.3510439,6.87882511 25.2934426,6.77704918 L21.8508197,0.742622951 C21.7338895,0.538046358 21.5159618,0.412174365 21.2803279,0.413114754 L13.6819672,0.413114754 C13.565023,0.413654301 13.4571262,0.476137741 13.3984526,0.577299221 C13.3397789,0.678460701 13.3391201,0.803142108 13.3967213,0.904918033 L16.8590164,6.93934426 Z" id="Shape"></path>
                <path d="M31.6180328,18.904918 L24.6786885,18.904918 C24.4430546,18.9039776 24.2251269,19.0298496 24.1081967,19.2344262 L20.3213115,25.795082 C20.2637102,25.8968579 20.2643691,26.0215393 20.3230427,26.1227008 C20.3817164,26.2238623 20.4896132,26.2863457 20.6065574,26.2868852 L27.5557377,26.2868852 C27.7913717,26.2878256 28.0092993,26.1619536 28.1262295,25.957377 L31.9032787,19.3918033 C31.9584348,19.2903659 31.9564725,19.1674589 31.8981064,19.067834 C31.8397403,18.9682091 31.7334864,18.9064022 31.6180328,18.904918 L31.6180328,18.904918 Z" id="Shape"></path>
                <path d="M26.1442623,29.395082 L26.4344262,28.9032787 C26.4920275,28.8015028 26.4913686,28.6768214 26.432695,28.5756599 C26.3740213,28.4744984 26.2661246,28.412015 26.1491803,28.4114754 L26.1491803,28.4114754 L12.7278689,28.4114754 C12.3406135,28.4274537 11.9764551,28.2272991 11.7823831,27.8918023 C11.5883111,27.5563055 11.5963592,27.1408438 11.8032787,26.8131148 L11.8032787,26.8131148 C11.990619,26.4906548 12.3352668,26.2921077 12.7081967,26.2918033 L17.2131148,26.2918033 C17.4469908,26.2909784 17.6626305,26.1653448 17.7786885,25.9622951 L21.5655738,19.4016393 C21.623175,19.2998634 21.6225162,19.175182 21.5638425,19.0740205 C21.5051688,18.9728591 21.3972721,18.9103756 21.2803279,18.9098361 L18.1967213,18.9098361 C17.8236378,18.9085216 17.4794098,18.7088777 17.2929997,18.3856992 C17.1065895,18.0625208 17.1061338,17.6645882 17.2918033,17.3409836 L17.2918033,17.3409836 C17.4689303,17.003339 17.8155266,16.7886 18.1967213,16.7803279 L33.0098361,16.7803279 C33.24547,16.7812683 33.4633977,16.6553963 33.5803279,16.4508197 L34.0377049,15.6590164 C34.1236684,15.5090331 34.1709897,15.3400286 34.1754098,15.1672131 L17.3065574,15.1672131 L8.85245902,29.7786885 C9.01211367,29.872063 9.19373341,29.921287 9.37868852,29.9213115 L25.2393443,29.9213115 C25.5978213,29.919618 25.9302899,29.7338814 26.1196721,29.4295082 L26.1442623,29.395082 Z" id="Shape"></path>
            </g>
        </g>
    </g>
</svg>