<svg id="Calque_1" data-name="Calque 1" xmlns="http://www.w3.org/2000/svg" xmlns:xlink="http://www.w3.org/1999/xlink" viewBox="0 0 198.43 198.43"><defs><style>.cls-1{fill:none;}.cls-2{fill:#9416c6;}.cls-3{opacity:0.5;}.cls-4{fill:#282828;opacity:0.12;isolation:isolate;}.cls-5{clip-path:url(#clip-path);}.cls-6{fill:#fff;}</style><clipPath id="clip-path" transform="translate(-0.43 -0.01)"><path class="cls-1" d="M145.26,98.15h7.27v6.46h-7.27ZM139.62,87v3.33h-3.25v6.69h3.25v6.65h-3.25v6.69h3.25v3.33h6.69v-3.33H153v3.33h6.63v-3.33H163V103.7h-3.33V97.05H163V90.36h-3.33V87H153v3.33h-6.66V87ZM88.27,44.88h0a55.26,55.26,0,0,0-20.93,5.57c-22,10.95-33.94,33.38-30.44,56.9a53.71,53.71,0,0,0,8.17,21.16c.8,1.19,1.54,2.24,1.54,2.31s.8,1,1.54,2a69.92,69.92,0,0,0,9.78,9.53,58.38,58.38,0,0,0,30.49,11.36,94.19,94.19,0,0,0,12.11-.49c1.18-.17,2.63-.4,3.24-.55l2.63-.64a56.93,56.93,0,0,0,27.76-16.45,55.63,55.63,0,0,0,5.85-7.4l.8-1.38-11.57-6.52c-6.35-3.58-11.77-6.55-12-6.58s-.94.6-1.54,1.54a28.36,28.36,0,0,1-13.88,10.16,22.81,22.81,0,0,1-9.47,1.42,25.08,25.08,0,0,1-11.73-2.31,26.09,26.09,0,0,1-7.71-5.25,26.71,26.71,0,0,1-8.67-18c-.94-13.32,7.71-25.07,21.22-28.6a36.42,36.42,0,0,1,13.45-.2,36.26,36.26,0,0,1,7.71,3A30.57,30.57,0,0,1,116,84c.37.58.86,1.05,1.06,1.05a8.25,8.25,0,0,0,1.91-.87l8.72-4.87c.51-.29,2.3-1.33,4-2.28s3.67-2,4.35-2.45,2.06-1.16,3.08-1.69a6.22,6.22,0,0,0,1.76-1.15A24.28,24.28,0,0,0,139.13,69a56.52,56.52,0,0,0-28.95-21.46A58.93,58.93,0,0,0,88.27,44.88Z"/></clipPath></defs><title>tech</title><rect class="cls-2" width="198.43" height="198.43" rx="4.2" ry="4.2"/><g class="cls-3"><path class="cls-4" d="M194.65,0H4.63a4.2,4.2,0,0,0-4.2,4.2h0V105.4l61.2-18.67,74-22.57,63.23-19.28V4.21A4.21,4.21,0,0,0,194.65,0Z" transform="translate(-0.43 -0.01)"/><path class="cls-4" d="M194.65,0H156.78L135.63,64.16l-25.2,76.49-19,57.79H194.65a4.2,4.2,0,0,0,4.21-4.21V4.21A4.21,4.21,0,0,0,194.65,0Z" transform="translate(-0.43 -0.01)"/><path class="cls-4" d="M110.43,140.65,61.63,86.73.43,19.1V194.23a4.21,4.21,0,0,0,4.2,4.21H162.69Z" transform="translate(-0.43 -0.01)"/></g><g class="cls-5"><rect class="cls-6" x="24.74" y="33.64" width="148.99" height="131.19"/></g></svg>